<?xml version="1.0" encoding="UTF-8"?>
<svg id="_Слой_1" data-name="Слой 1" xmlns="http://www.w3.org/2000/svg" viewBox="0 0 408.71 131.4">
  <defs>
    <style>
      .cls-1 {
        fill: #2a3b7e;
      }

      .cls-2 {
        fill: none;
      }

      .cls-3 {
        fill: #e63a28;
      }
    </style>
  </defs>
  <g id="Layer_1">
    <g id="_5405899632" data-name=" 5405899632">
      <path class="cls-1" d="M81.75,60.35c1.51-5.04,5.06-9.92,4.61-15.37-.18-2.14-1.49-6.25-4.32-5.81-2.7,.42-4.03,3.69-4.83,5.92-.02,.07-.74,2.85-.74,2.85l-.71,2.75c-.62,3.03-1.34,6.06-2.53,8.93-.35,.84-1.6,2.41-1.6,3.31,0,1.37,1.29,1.72,1.65,2.84,0,.65-.03,1.31-.16,1.95-.13,.61-.92,1.25-.92,1.82v11.22c0,3.34,.78,7.01,3.44,9.28,2.2,1.86,6.27,2.84,8.73,.96,1.8-1.38,2.86-3.94,1.01-5.62-2.48-2.26-5.28-3.2-5.28-7.08v-6.87c0-3.75,.56-7.49,1.65-11.09h0Zm17.4,23.77h0c-2.14-1.92-1.19-7.1-.95-9.56,.31-3.25,1.53-6.35,1.53-9.63v-1.18l-.06-1.02c-.02-.42-.37-.7-.79-.7h-1.74c-2.01,0-5.36,2.87-6.77,4.22-2.19,2.02-2.66,3.88-1.06,6.29v10.89c0,3.72,1.22,8.49,5.77,8.49,4.17,0,7.6-4.65,4.07-7.8h0Zm-33.93-6.35h0c-1.45-3.76-2.92-8.98-4.37-15.52l-2.2-10.69c-.92-4.15-2.22-10.42-6.86-11.99-4.96-1.67-9.85,3.24-13.02,6.39-6.62,6.58-11.75,14.43-17.19,21.96-4.07-3.84-9.23,2.9-6.25,6.73,0,0,.42,.6,.44,.63-.03,0-.07,.37-.07,.37,0,0-.02,.17-.03,.33-.17,.23-3.39,4.57-3.39,4.57-3.05,4.07-4.43,5.79-5.05,6.52-.06-.06-.17-.17-.17-.17-3.48-3.48-6.35,4.8-6.95,6.82-.59,2.02,1.15,3.54,2.97,3.54,2.25,0,4.17-2.06,5.52-3.6l2.51-3.35s3.97-4.88,3.97-4.88c0,0,5.75-7.24,5.75-7.24,.38-.11,1.28-.36,1.28-.36,.63-.2,1.22-.38,1.6-.4l4.6-.16c6.7-.23,13.7-2.36,19.67-5.35,1.48-.74,3.6-1.77,4.19-3.47,.82-2.4-2.18-2.64-3.77-2.59,0,0-15.79,1.89-19.25,2.31,3.21-3.5,17.89-21.33,21.55-9.99,0,.03,1.46,7.7,1.46,7.7,1.62,7.28,2.57,17.05,7.3,23.1,2.35,2.99,8.11,4.93,9.59,.05,1.21-3.99-2.47-7.67-3.83-11.23h0Zm32.21-31h0c-5.94,0-7.11,9.29-.87,9.29,5.51,0,6.75-9.29,.87-9.29Zm68.85,41.04h0c-.59-3.28-4.94-2.59-5.29-6.17l-.31-1.95c-.1-.4-.16-.69-.17-1.87,1.62-4.02,2.52-8.94-.41-12.6-2.53-3.15-6.92-4.6-10.85-4.61-3.77,0-10.55,1.8-11.86,5.93-1.21,3.82,5.54,8.89,7.07,3.96,0,0,0,0,0,0h0s0,0,0,0c.8-1.71,5.46-2.26,6.98-2.21,4.13,.11,5.39,2.94,3.83,6.54-4.29-5.57-16.26-1.44-18.25,4.44-1.38,4.09-.06,10.09,4.08,12.17,4.72,2.36,9.03-.74,12.44-3.88,0,0,.7-.7,1.28-1.28,.51,2.91,2.55,4.59,5.23,5.54,2.62,.93,6.86-.52,6.23-4.02h0Zm-15.44-5.29h0c-1.05,1.02-4.16,2.68-5.16,.63-2.02-3.55,5.76-8.33,6.34-2.46,.09,.6-.83,1.49-1.19,1.84Zm-19.07,1.97h0c-.98-.54-1.43-1.27-1.43-2.27v-2.19c.02-.12,1.43-9.42,1.43-9.42,0-.04,0-.08,0-.12v-3.38c0-2.09-2.17-4.24-4.23-4.24-2.42,0-4.48,2.08-5.97,3.75-.01,.01-5.06,6.5-5.06,6.5-.28,.36-2.77,4.08-3.78,3.07,0,0-.02-.12-.02-.12l.09-.74s.11-1.1,.11-1.1v-4.25c0-2.75-1.92-4.88-4.77-4.04-2.07,.61-6.21,2.56-6.21,5.17,0,1.45,1.72,1.75,2.24,2.98,.93,2.21,.88,4.93,.88,7.27v6.3c0,1.66,1.29,5.12,3.55,4.42,1.87-.58,3.27-3.32,4.23-4.81l5.47-8.39c.45-.63,4.74-6.37,4.74-2.96,0,2.33-.56,4.74-.86,7.05,0,.03,0,.09,0,.12v2.56c0,3.12,4.68,7.06,7.77,6.42,3.85-.81,5.6-5.49,1.82-7.58h0Z"/>
      <g>
        <path class="cls-2" d="M193,100.34c4.72,4.05,7.17-5.06,6.88-7.8-2.44,.33-10.61,4.6-6.88,7.8Z"/>
        <path class="cls-2" d="M230.12,94.24c-1.56-1.39-3.64-2.46-5.78-2.27-.13,2.93,.91,7.26,4.18,8.17,4.33,1.21,3.99-3.85,1.6-5.89Z"/>
        <path class="cls-3" d="M204.25,91.94c.74-.25,.94-.92,.99-1.62h0c.02-.1,.03-.21,.03-.32h0s0-.04,0-.05h0c-.19-1.91-1.77-3.03-3.61-3.2h0s-.07,0-.11,0h0c-8.23-.57-25.22,11.73-13.46,19.23,9.95,6.35,18.06-4.96,16.16-14.03Zm-11.26,8.39c-3.73-3.2,4.44-7.47,6.88-7.8,.3,2.73-2.16,11.85-6.88,7.8Z"/>
        <path class="cls-3" d="M204.54,81.93c.95,4.5,2.35,9.7,5.64,13.09,.76,.73,1.66,.92,2.26-.21,.87-1.6-.81-4.79-1.29-6.16-1.39-3.4-1.88-7.05-2.01-10.69-.31-8.22,.24-16.49,1.02-24.67,1.36-14.23,3.36-29.15-1.39-42.99h0c-.92-2.7-2.17-5.92-4-8.17h0c-.53-.56-1.1-1.02-1.77-1.41h0c-1.63-.96-3.78-.99-5.34,.14-1.73,1.29-.1,4.16,.55,5.32h0s.01,.02,.01,.02h0c3.52,7.57,7.3,13.37,8.2,22.05,.63,6.12,.08,12.25-.62,18.33-2.61-6.83-7-14.68-13.87-17.99h0c-7.21-3.6-15.94-1.58-19.64,5.86h0c-5.35,10.8-.6,24.65,5.55,34.04,3.63,5.54,19.3,22.45,26.68,13.44Zm-20.16-48.23c7.51-2.5,14.18,9.85,16.37,15.09,2.87,6.88,4.16,14.11,3.09,21.55h0c-.28,3.07-1.39,8.24-5.56,7.54-8.76-1.47-14.27-12.56-16.77-20.01-1.87-5.55-5.42-21.46,2.88-24.17Z"/>
        <path class="cls-3" d="M252.99,34.51h0c-2.64-8.93-10.38-12.65-18.7-7.98-8.49,4.76-13.91,14.21-17.16,23.09-.34-11.33,1.67-21.65,8.63-30.86h0c1.1-1.45,2.65-4.75,.32-5.9h0c-1.89-.99-4.71,.06-5.8,1.95h0c-10.21,17.69-7.27,35.46-6.79,54.76,.29,11.73,.6,23.64-1.98,35.16-1.24,5.54-2.75,10.29-5.13,16.23-2.14,5.35-5.54,8.82-3.8,10.09,4.03,2.93,10.03-13.26,10.97-15.83,3.73-10.24,5.52-21.09,5.9-31.97,11.02,4.95,23.8-15.63,28.26-22.83h0c4.52-7.33,7.79-17.32,5.29-25.9Zm-9.04,11.35c-1.33,9.15-6.14,17.12-11.95,24.13-1.85,2.24-6.5,8.42-10.07,7.16-3.09-1.09-2.92-7.45-2.97-9.84h0c1.59-10.96,4.81-22.75,13.2-30.53,2.28-2.11,7.33-6.34,10.23-2.74,2.48,3.08,2.09,8.19,1.56,11.82Z"/>
        <path class="cls-3" d="M230.09,87.89c-3.58-1.06-9.52-3.24-10.21,1.54-.85,5.96,.34,14.8,6.85,17.22,4.95,1.84,11.68-.59,12.42-6.29,.74-5.73-3.8-10.93-9.06-12.47Zm-1.57,12.24c-3.27-.91-4.31-5.24-4.18-8.17,2.14-.19,4.22,.89,5.78,2.27,2.39,2.05,2.73,7.1-1.6,5.89Z"/>
      </g>
      <path class="cls-1" d="M407.91,61.32h-1.29c-.06,0-.08,0-.14,.01l-.7,.17s-2.98,1.07-3.64,1.3h-.61v-1.88c.63-2.61,.88-5.35,1.25-8.02v-2.88c0-2.66-4.38-7.31-6.76-4.23-2.38,3.06-2.91,8.84-2.91,12.58v3.74c0,1.21-2.99,1.05-3.73,1.3-1.44,.48-2.29,1.71-2.46,3.2-.4,3.44,3.07,4.28,5.55,5.55v5.38c0,1.17,.49,1.77,.94,2.08,0,.44,0,1.41,0,1.41,0,0-.03,3.32-.03,3.32,0,2.49,1.02,8.23,4.49,8.23,2.65,0,4.24-5.54,4.24-7.62v-3.07c0-3.16-1.19-6.29-1.24-9.49,2.66-1.31,7.19-1.59,7.74-5.25,0,0,.11-1.14,.11-1.14v-3.89c0-.44-.36-.8-.8-.8h0Zm-71.5,23.29h0c-1.09-.47-1.75-.75-1.96-2.97l-.31-1.95c-.1-.4-.16-.69-.17-1.87,1.62-4.02,2.52-8.94-.42-12.6-2.53-3.15-6.92-4.6-10.85-4.61-3.77,0-10.55,1.8-11.86,5.93-1.21,3.82,5.54,8.89,7.08,3.96,0,0,0,0,0,0,0,0,0,0,0,0,0,0,0,0,0,0,.81-1.71,5.46-2.26,6.98-2.21,4.13,.11,5.39,2.94,3.83,6.54-4.3-5.55-16.25-1.45-18.25,4.44-1.38,4.09-.06,10.09,4.08,12.17,4.72,2.36,9.03-.74,12.44-3.88,0,0,.71-.71,1.28-1.28,.6,3.47,4.06,6,7.57,6,1.86,0,3.92-2.16,3.92-4.01s-1.86-3.01-3.37-3.67h0Zm-12.12-2.1h0c-1.05,1.02-4.16,2.68-5.16,.63-2.02-3.55,5.76-8.33,6.35-2.46,0,.66-.77,1.43-1.19,1.83h0Zm-18.29-40.53h0c-7.49-5.56-17.73-2.32-23.6,3.84-5.86,6.15-8.88,14.22-12.88,21.57-.02-.63-.07-2.6-.07-2.6-.52-7.17,.73-15.08,6.16-20.13,2.2-2.05,4.81-6,1.53-8.45-1.34-1-3.03-.92-4.36,.04-1.43,1.02-1.52,2.54-2.79,3.73l-.23,.21c-.93,.87-5.3,5.86-1.49,5.86-2.02,5.54-4.08,11.17-5.18,16.98-.96,5.13-.64,10.25-.3,15.43l.06,.84c0-.07-.43,3.84-1.52,7.63l-2.98,10.83c-.86,3.38-.65,5.76-.52,7.18l.06,.81v2.82c0,2.28,1.69,6.08,4.42,6.08,2.38,0,3.6-3,4.27-4.83,1.49-4,2.08-8.21,2.69-12.41,0-.02,.06-.88,.06-.88v-10.4c0-6.74,3.62-12.62,6.43-18.47,3.07-6.53,7.42-14.14,14.29-17.29,2.73-1.25,6.71-1.94,8.95,.59,2.15,2.41,2.03,6.18,1.58,9.16-.94,6.12-3.7,11.83-7.59,16.61-1.9,2.33-4.1,4.61-6.77,6.05-1.13,.61-2.38,1.06-3.67,1.09-2.34,.06-2.06-1.47-2.21-3.11-.7-7.72-10.8-1.8-9.85,4.04,1.29,7.94,10.52,5.31,15.46,3.02,6.18-2.86,11.47-7.35,15.54-12.79,3.55-4.75,6.36-10.18,7.71-15.97,1.27-5.44,1.9-13.26-3.2-17.05h0Zm78.11,42.5h0c-.98-.54-1.43-1.26-1.43-2.27,0,0,0-2.08,0-2.19,.02-.12,1.43-9.42,1.43-9.42,0-.04,0-.08,0-.12v-3.38c0-2.35-2.53-4.54-4.83-4.19-2.16,.33-4.22,2.2-5.5,3.86-1.65,2.11-3.29,4.23-4.94,6.35-.28,.36-2.77,4.08-3.78,3.07,0,0-.02-.12-.02-.12l.09-.74s.11-1.11,.11-1.11v-4.25c0-2.74-1.91-4.89-4.77-4.04-2.07,.61-6.21,2.56-6.21,5.17,0,1.45,1.72,1.75,2.24,2.98,.94,2.21,.89,4.92,.89,7.27v6.3c0,1.66,1.38,5.3,3.67,4.38,1.81-.73,3.12-3.24,4.11-4.76l5.48-8.4c.22-.31,4.31-5.56,4.68-3.68,.46,2.39-.48,5.38-.8,7.78,0,.03,0,.09,0,.12v2.56c0,3.11,4.68,7.07,7.76,6.42,3.85-.82,5.61-5.49,1.82-7.58h0Zm-34.16-37.71h0c-5.33,0-7.41,7.65-1.74,9.17,5.92,1.58,8.12-9.17,1.74-9.17Zm1.71,37.36h0c-2.14-1.92-1.19-7.11-.96-9.55,.31-3.25,1.53-6.35,1.53-9.63v-1.18l-.06-1.02c-.02-.42-.37-.7-.79-.7h-1.74c-2.01,0-5.36,2.87-6.77,4.22-2.19,2.01-2.67,3.89-1.05,6.29v10.89c0,3.72,1.21,8.49,5.77,8.49,4.17,0,7.6-4.65,4.07-7.8h0Z"/>
    </g>
  </g>
</svg>